/* XPM */
static char *_b50bd0c46e64fe8d64b3e235358fb42wYv6x5Ue83hn8CEz[] = {
/* columns rows colors chars-per-pixel */
"128 128 41 1 ",
"  c #94AA07",
". c #95A709",
"X c #95AD0B",
"o c #98AE0C",
"O c #95B207",
"+ c #96B20C",
"@ c #99B40C",
"# c #97B90D",
"$ c #9CBB0E",
"% c #97B310",
"& c #9BB610",
"* c #9DBE10",
"= c #A0B70D",
"- c #A2BD0E",
"; c #A1BE10",
": c #9EC20E",
"> c #9FC210",
", c #A2C30F",
"< c #AAC50E",
"1 c #A6C80F",
"2 c #ABCA0E",
"3 c #B1CE0E",
"4 c #AFD00F",
"5 c #B3D20E",
"6 c #BAD50F",
"7 c #A2C411",
"8 c #A9C611",
"9 c #A6C911",
"0 c #ABCB12",
"q c #B0C714",
"w c #B1CE12",
"e c #AED012",
"r c #B3D213",
"t c #BAD514",
"y c #BDD914",
"u c #C0D714",
"i c #C2DC15",
"p c #C1DB18",
"a c #C4E014",
"s c #C9E116",
"d c #CBE419",
/* pixels */
"@$>:>700r-@>>98>9999987*9w00999,,099,90w*>>:>>>:>>:>>>,>,99,99990ru$>:>>>:>7:$7>:::,99999999,9908@,9091r,@7>>>79,977>>>7>798999<",
"77>>:909wX@7:*9*779,9977r19899,:79999909:>>>>>>>>>:7>>:>>>:,,9989<w=+,>>:7>>:,>:>>>:,9997:79999w,@,,992y@*>>*#>9,7:7>>>>779997;$",
">>>;7,90,.@,:,>>::,999999979999*99928,9,>::7:>>>::>>>>7$,7,,,>=#%+@#@:::>:>>:7:>,>>:,9929>:9,990,>999,r8*0ttrr=*7>:>>,>>>:>7>$:7",
"7>::7999$@:>>:>777$799,:9979,97>999,,::,:7::>:>>>>7:>7>,,999110rrr97>:>:>:>>>>>>>>>>>,9,97*79799779990w@9e09yr$*$>>>>>:::7>>>>>:",
"7:7>999990197,>>::>>709>9,7999:,999,>:::>>:>:::>:>>>:,>999999977eii<$>>>>>:7>>>>>7>7>7979,:>7797*9999e*79999w,0t@:>>>>>7>>,:,:>7",
">$>>99997,99897>>>:>>>:,1:9997:799,>>>7>>>>$97$>>::>7$>>9777,77ew7$#$$:0:*77>:>>>>>$>>:79,:>:>:>,9199,>999772r9w@*7>>>>>>>::>>::",
"::>>,7,7,7-@@o#7>>>>>*7:979977779$>>>>:>>>>,r:7>>:77:>>>>>7>::9-#$*:>:tr$:79t0:>>:>>>>>>,,:7>>::,999>:19<9$92908+7:*7>>:,>>>>>>>",
">7::799999977$@$7::>>7>:7*97:>>::>>>>7::>>:9w7*;rt,>>>:>>:>>:7::7,7:7tt-#,700@#>7>:>,>>>:>*::::>7,7>>7,99999990$*:>7:>::>>>>::7>",
":7>:,99999998,>:>,>>>>>>>77>*7>>>>*>:>>77**99$7007:>:>>:>>7:>,>::>>:009#,99r@ @:>>>>>>>>>*:79>$>:>,>>:799919900@>>>>7>:>:>>>7:>>",
"7>>7,999198989$>>>>:>>7::>:>>>>>:7>77:>7,@997=9979e1*77:>>>>>>>>>>:7997799w$X@,:>:>:::>:,7#rt>>:>>>>>>79991980@$,>>>:*7>>:>:>:>:",
"7:>>>79999780t7>>>7>>>77>777777>>>::7>:9+$99,91998e$#,>>>:>:>>:>>>799979,e;X7e07*>>>>>>>>>$r9>:7>>>7>:7901999##7>:>>:>>::>>>>7>>",
"&#7::>:7-79;@<8#,:*>:7;#$@&@@@#$>>:79:79@999991779,$7>*>>>>7:7>>>>$999,90<$9000tt:>:>>>>>*-1,:>,:>>:>:>7797:$*,:>>7:>:>7>7>$*:>9",
"+7:>:>*:>>70;++::>:>7>#+++++++++#779991:99909,9w,$o@@$7>>>:7>>:>>:>999999,9,770ty9>>>>:>::#79>>>>7>>:>>::>>$:7>>:>::>$97+78=#:9t",
"*>>$:>77>,90t$$:>7>>*>7**#@@@@@#$79989,7999>,0rt,*$09$:>>,>>>:7>:7779199791792,$+@:>>>:>>>#797>$:>>>>,>>7:>:>>7>>:>7>7t=#90@79t-",
">90w,@$:>>*-,@7>:>>,>:>:7>7*>>777*997,>79:>90wr9:7<r97>>>>>>>>>>>>*7999917>:$+XXoo$:>:72997*19>>>:>>>77>>777>>77:>:>,,0@:t$$700+",
"99q09$+++$>:#@:77>>>:7>:>>7>>7&+@*>>>,,777990r9*79e,#*,77>7>7>7>>>7,799,,>7$o+$*::7>>rr00029771>>77>*$$$#$@$@@#>>>>,999708+980,$",
"9,$@$@@#$::,77:,*>7>>:7>>>>>>>::*:>>9999989909*,9w9oX$7$$#=@$#@@@@&:>>779997,:>:>>>*rsy097,99:>>:7$@+@++@@++@+@@7>>799917:999199",
"990rt$$,77:,>:*7$7*>:$>:77:::>>>7>>>999977,,>>790<oX@:@++@+++@++++%*>,99998999,:>7:>-+@$-77>:>>>>,@+@+@@@O+@+%%#>>>,>>7:79999999",
"7,7,,;7$#@@@@+++++++#779999917>:>>>>999979wr,:>7&+;$,>$#+@X@o+@@@#,779>7199990r>7>>>=708999,7,7>>:@@@@@+@@++++*:>>:7>::>,997977,",
"::$#>>#++@@+++++@@+o@7,799197997>>:7>,9990r8,7,9,re>7>>>:$$$$$$*>,:$999>,90,9<t:>>>:rsaw999999,>>:,#+@++@X+@@-:7>:::>>>7:>7>>>7>",
",>@#:$$@@@+++@+++@#$::>,79<999,1,7:>>>>>77>>99000-@7>:>>77>,,7>>:>>*798977wtw9r7>:>>*@9w9,7777:>7::7>*$:$&>7,*>>::>>t9@>77>>:>7:",
"7>9t0X7,:*$#$#$$$::>>:>:>20999999,>>>>>*7-:>7&#@+@$7>>>:,:>::>>>>>>>99999,@;rii,>>:>*$#@7:>::>,>>>>>>>,:7*7:90@,:>720;+0t0%77:>>",
"9<0w#77*>7,,7>777>>,79,7:7<3332902>*>>>>>>>>::*>7777:>7>>>>:;*7>>7>:,r9790@+o;r>>>,>>,7,>>:+#>>>>>>:>>$*>>>>,r,#,>79>>99e7@>>:>,",
"902#*7:7>>>>>>7,>:77,999977992<<5r>>>>:>>>:>7::>7*#$:>>>>>,0$@7:>:7:$<r97w,7>@o@:>>>>>>7>,$X+r>:>,>>>>r2#,>>90w+:1919998t@*7:,99",
"$>*>:>,>:>>7:9997$,997<9999>997++->:>*>77>>>>:>>&$@>>$7@>,90$@7,*:7::*<y8w->>7$$7>>>>7:>>>&X<d0>7:7>*:ry,@7799r@$999,99y8@,7::::",
";;#-,9997:::77999799998,2,97@;99@o@7:>:>>:>>>7>$<t$$-0t@7918@y7*7:>:>,#,iu$>,:7>>,7*>,::>>X+pr07>>*>779,t=$9990@799989w8%>:999,-",
"r,$9299,7,:>:99,9,*,999992019%+97:*:>>>:>:7>>;-20<+:908=9,7,<t-$:>;>>$7#;w$7:::>*;@$@$>77$X7y,9,>>>:>7972w+79897999999@$7:>,798w",
">>791199997,:9992,@;29997,5099@X7,7>>:>>>::::$,9,2,10,,<87,923@$>*>>>>77$X>7:>7>>*$-r0177*X8079,>:7>7>:,90-:197:9,91988,*:::>>>>",
">>791,02999>:99999$+,0999,73999$+$7:7>>>:>>>>:79:9999>:97>99089099,:>>:>77>:>>>>7>7:*0yw7,@899,7>>>:>>>>997:799>>,,,78tr@:>>>:>7",
"7>,999w0,99,;99192$;+2581,$755,7:@>:7>>:>>>>7799:997>>79,99,79200w*>7:>>:*>:>>>>7#$$$@*yy09,999,>>>>>>:>7977799>7>>*908#>>>>>*>:",
":>299922991>$01900$7*+9599@@$5<*>>>>>>>>>>:>>:90797>7>7778988007#&*>7>77777>>>>:@-wr09$#ei9988977:>7>7:>790-779:7777::*>>>>>>>:>",
">:2992<2999$$49992$>:$+=3w$@Xo@9>>>:>>>::>>>>>79,,>::::>799,9,$&77,$*$$*#$7>>,*+qyw91991>0r999977>>>*>$$$-$$##$$#$$$>:7>>>:>$,>:",
">*9992,2<79@:22993$>:7>++2<07+$ir>::>:79>:>>>>>7>*>7>>>>77$77>::>>@@@++o++#7*>@yd9,991999:0099,:*#@@+@+++++++++@+@o+@@#$,7$,:>>$",
">*,595:2091@:1e722@,:>>7$X-it092rr:>>$ry,::>>>>>>>:>:>>9r$+,>>:>:,*#@&@#@>,:7$$0ttr999919099197@@++@@@o@@+@@++@+@@+++@++@*7>>7:>",
",:@w6,#290@$:,595-@7>>:>7>$w9w9>7r07:9r2r>>>>,::7:>,::709;@7>>>>:>>77>,-:*$:777*@#7899999991,7#++@@++@+@@+@%+@+@+@@+@@+@+*>:>>>>",
">:@,r#=55,+:7#36,X>>>:>>:,:85,999197>907e:>*0p7>>,*+>>909&+>*:>$:*$%@+@+++@+@>$$9wr089999999>>7$@@@@@@+@+@+++@@+@+@@@@$$7777>:>7",
">>$#7+,2@o*>>#,<X$,:7>$7>>>>9r19999,:72997:riy7>$97+@>907$X+@,99908.+@@+++@+@@$is01797999988>>::7>>:*:>$**$:*@&,7,9,:779899997>>",
">::&X*@X%>7:>7@.$::,::7>>:7>>0599,9977199:,r701>:907o@9077o+79999r@X@@@+@++@@+-90w0:>>:79997>>>>>:7>77>$*@@@o,r1989,777<9989980*",
"77,:*,*>7>:>>:7*>>>>7>>,7>:>*>99999977197701,,7>>7r97+@997$$79175q @@+@++@+@+@:$*>9r,::>*7$777>$>:>>*@++@@o@8098877,9,989,9090i0",
"999:77:7>:77:*>>>>*>*$;$$>::0t9999,,>7997>997>:>>,t017@79,>79919p+X@++++@@@@@#>7>>>:7>>>7>>>::>>>>7$@++@@o@r00009,799779989wr;0y",
"99,>997>>792998@++@++O@X+@::0r9999,7,99,$799,:7>7@0i999$99:,99,r< @#@+@@@++@@->>>>7::>>:>>>7:>7>>>:#+++@@+=-78<$7e919,:97799wy&#",
",9*7997>7777,wi,@O@@@@@@@+@>::998,7:>,97>997$::>,8X0y9,979,7999879erww=o@@@@&77>>>*7::>>:>>:7>*777:@@@++++@+++X.309997>71:#99wy-",
"98:9,<7999990,@@o+@@+@@o@@+:$7:>>$7>*>,$>997>>>>7yy7<r09999,199$,99100@++++#7:,>>>>>>>:>:>>*709:>*>@@@+++@+++@.<y9199*$,99$@79r9",
"r,,999$,09998w,@@+@@@@+@@@@@o#::>:#+o$$+#79,7:7>$9p00199999,9,,9297e8o@@+@#>>>>>>>>77,9799:,>:9w0w,+++@@@@+@@X@t9999,+.7729@o708",
"9>99,9$@999991r9+@+@+@+@++X+5-$7>@@<w$@0@:>>:>>>7>007999999,,,9,9,r<o@@@@*>7>>;7>>>:>9999199899wyt$$@@@@+@@@+X,97,,-@O $700>#o:9",
",$7t7r-+;w999<9w7+@+@@@+%X@562$:$@22w#,6,@,>::>>$>78999,9,97$99999$X@@@&7$@@@@@@@@+,:,9299199w87$#:7$@O++ O +@@@+@@o+#@$709>7*:$",
"7>$0yw+@+,t979rrtXXO@+@+XX6292,,@102,$522$*:>>:>>,,>77999,,:7:7:,$#$$*>7$X@@++@%+@$,91,9,999990089:$7>+X .o..o+@++@@$>%@e0>>::7>",
">,>70$+++o$tyo+-2<-XX@++@:3,921&$0,e,92,3,*,>>>>>>>>:>>77>>::>>::>7::7>>>7@##&#$$:,990078899979wsp@&:$XX  ....+@#$*$77$>0>>>:7>:",
"779:>*+++++@-=X. $r2@ X$*,0<992$,999289892*,>>::>>>>>>>>>7:::::>7>::>>79,>:7>77:>>7999t0>78900wy0@*>+@ X...X.X*$;-$,79097:,>:7>7",
"792,>::+++@+X3r-++995,X$:-08990#,929229291>>:>7>7>>>>>7>:$*,7:77:>77>7997>>>:>>>>79999,yr,&;808&#::>;#@XXXXX+@$$$7009<79>77>>:97",
">99:>:7>$@X++,33,$99942@$-99,99,,999029997:>>>:>>>>:>7>>@9t09,:>>>997:789::>>>>7:,999,,9ryw-*#:*7:>>7,>,$:>>77>wr002989,,97$,799",
">99$7>:>:,:@ -996<,99720@$9999,,,,9999999>>:>>::$:>>>:::$9w9799,7>7297;29;:>>>>>7:9990+*,90r0>*>:>>>:>:@*>>,7&>:,7@0999:99978979",
"0r$*:7:>:$79;+$99w219980,#9,997>>>9989297:7:>>$7w017,7>:7*@,99999>,917@w0,79:>::>>9,t0X#:>$*7=@#>>>*>>$2-$::>:>77#=t9,:99$899,o8",
"8$->>:>:>++@91$$1,9,,99,<,7899,7>:>79,77$::>:7$-;-9799:>&80919997&2199*#t997>>>>>>0ry@X>>:>>$>>>>77:>,$tp<$>>>::7#7r@1997@w09*@w",
"#:7>>>7>::<=$,9777999,1,99:,997:>7>:>>>,7>7:7$*77:,:7:7&0t,99999:@r997,$$tt:*77::>9s7.@>>>777>>>7$@>7,,w9rw;>>>>>77#@w99>&*:>>@=",
"77>:::>>,,5r20229,,,9999,:>:>::>>>7>7>:>:>>7@,r99277:,*#r90,,99>7@9r,7::$-7:>>>:>>:9@o>7:,>>>>>77#;@@&*0990w$7>>>>>$-87,79>7>:>,",
">>>>>>>>>>,0999030,,7:$7:>7>>>$>>$$>$$$*7:,#<t97,>>>>7@8t9-$90>>>*@w7:>>,>>>>>>:>,:>*$>>7#$::>7>*-iy8@o,99,997>>>:>:9,$@&#$>>>:>",
">7>>7>>7*>>999,9199,>*>7>*@@@+@@+++++++@$>7@,,$-::7>:>*78>@<r1>>>7**,>>>::7::>>>:>>,7>7>80-$#>>>>:r0ttw7,99<7,>7>::>-@$,<997:>7>",
"97>>$7>:7:*>799999199>>:7$++++@@+++@@@@#:,>7*@$7>>$>,>7>>:,>>::>>:>7>77777>>>>>:,>7999927riiw>:>7*r9990977799>::>>>>>9w8,97:,r09",
"9999::77>>>>:>77999197>7:7&@@@+@+++@@$*7>>:*80977979,9917*>7>>>>>::7$#$@@#@$7:>,*7>717779-;@*:>>7*wr98799,,,7>>:7>77&@+$777:4w99",
"9999>>>:>>:>>:7:::7>>>>>>:,>:*>$-$*>:,,>>7$*78<799979987>,7797>>,>,@++@++@+@>7>>*:::>779788q0:>,>>::9919999,>>>>>::@o@2e89*77,,9",
"7777::>>>::>>7*>>7$>::7>,:>7>>$:7,7>>>:>>>>7;-799,,090#9991172>>>>>#+@+++@#>>*>7:777999989ri0>::,>>*@$77:7777>7>>>$+@009:7009999",
"7::799,>::>>>>:>:>7>:>:>*7>::$@;*7,::>:>>7$&,ww97@807$+r7@001>>::>>>;$$#$;>>>7>:>>,97*,0092,$>*+++.o$::,99,997*>>>77r07>>5w09,79",
"779999,:>7>7>7:77>>,7:>:>:>>**,r9,$7:7>>>>>:-:>:#-y97@20#=t::>:>:7>>>7>>>7>>:>>::>:,9;$*7:::7:>@@$,27,99911999>7>>*,w;&>rr09,998",
"797997$777>**$$$$$$$*7>7>7:>-@+;97,7>>7>>>7:,:7*@t9>$$9:#7>>>>>7>>7>*$,7*>:>>>7:>>>>79#7>7>>>>>7pr011097,99999>>>$>$@+$79,99899,",
",9$7,:7:$@++@++++++++>:>>>>:$w3--99,77::>:>>::>*;,>>:>>>7:>>>7>:,>:#*9999,:7>>>>>>>780::7$>:>7:>8r000,@98978877>>>>:$9999999999@",
"7,:7>7,>$+@@+@@o++@@$7>>>>>>7;w999,8999:7:>>>>>:7>:>>:>:>,7:**$7:7@7999,927>>>>>:>>:rr$,>>>>>:>>>>::@o20977097>:>>>#;r99999-19@#",
"9->>>>:>7:=#$#*#$-**7:7:>77::>,99999899,>>>:7>7>>>:,:>>>:$@X+o+#:@,099,9997:7*7:>>>$08*77>:7>>77:::XX0099;79w7*>>>7,7>>909$70,$7",
"7>7$>*,>:>7::7>7,9;:>:*>*>>7#@$7798999,7>7>:>>,:::*,:>>>+Xo+oXX+*@r99999997>>>,7>>>7*:>$:>>>>:>>>>*@807,#&tt7>::>:>7:7er1:>09:>>",
">*>:>>>>>:,97>>999,97>>>7:*>>#$@$-,,,99,:>>>>>>>7>>>>:>>oXXXXo+XX8890,79197*:9997>*>,:77,::7*7:7>>>9t997*wr7$>7,7$:>::>>>>>e7>:>",
"7>:7>:>:>799::,299,97,9>>>7,:>1999179999>>>>:>*7,>>>::>:>$*++@+XXrr00,9999;99999>>777>>,9,,:7>>>>:::>$$$>9::7:*$$,,>>::>>*>,>>>>",
">>>>7>>,9997,79,9,9779,9>>>*>:>7,77>9,97:>>,>7:>*:7>>7>>>,>::>7*#9,<t8909:,r9<99>7077>>79997:>:>7$++oXo+++#7$$,w00>>7999>>:>>:>>",
">:>$9,799991,7999,9979,89>::7*7>7+X,9987>:>>>>7>7::$,77>:>>>:>7:7$@tyrt0:=t99997709,98>>9999>>>>#XX+XX+XXoo@$7wyr9999999>7>>*>>>",
"7:>>09199,9,>9989990,91997:>::>>>o@r,09:>>7>>>9,:$7,7,177>>>>>,7,1$#$7>*@t08999@-r99987,,911>:>>+ooX+XX++OXo#*#@=;,-7:7:>:>7:>>:",
">::>w8999>>:,97r09r9>89991009r9$>#7rr9$:;>:>::#@$899999,:,>7:799799:7>7&<r,009>&<0,97998997997>>%Xo+X+ooooX$:+tr9999,,7::7>>>>>:",
":::9t9>9,$::71t0wy0;:8y90e90rr9,>>7w9*,:>>>>7&,tww00999771,$779,,99,>>>+tiyyw>>#<098:9900te>0r>>#XoXXXo@+#$7:>:ew0929,79,>>:>>7>",
">>*99>,t8>7*0y9*e9*>>*0yryr:**>>>>>>*:>7,>$7*97$0,-<99,,899:9007790,>7*@000:>>7@=w9,709300i900:>>>##$$$$::>>>:::797$$88,>>>7>>>:",
"7>>>*$0t$$:>99>,:>>>>>::>:7>>7:*>>>>>9&*,*#,9t@*>X<w99718;r9tq-80r77>>>>*$>>>>>$@3,9*702<w-it>>>>>7:>77$:>:::>>,9$>$82,:>>>>$7>7",
"*>79r9,>**7:7:>:>>>$>>:>>>:>>>7>>:>7t;#9w@,8t-@7*Xw8=090@;yr9@<t2>$>:>>::,>7:>>>+w9$9702@t+<r*::>>>>>#7,>>7>,,:79>>>09*7>>>>>$0t",
"@770w;#>>>>>::7:>:>>>>>>::>>::>>>7,92@>r@$109+99erwX<tw9#*7>>+;7>>>>>7>>>>>>>::7+-9%-rt7+9;$>7>,>>7>*009>:*799>797:>99>>>>>>7rt8",
"799w@X@,:>>7:>>>>>>>>>7*7:>77>:>*99,999,$9,9,799,-#Owt,>77>>$$$*$$&#$@$$$>>>7::7$$>7Xtr$@>7:>:$:>:>*,r999,7,999707>:,9>>::7:0e7$",
"990o.$::>>>>>>:7>>>::7>>>>>*>>>7:799,>,191999998,0q$$:$$#@@@+++++@++++o@+@7>>>>:>7>:#,77>>>>:009,,>>*@799997799#e9>7:>:>>:>:99,,",
"92@$20209,:>7*>>>*>>:>>7>>7>>>>:>>,*>>799999979,798>>:@@@++@@@@+@@@++++@+$9999977,>,:>>>>>>:$7-,977*=w9919,=999#,r97::7>7>>799,9",
"8,90990ri9>::>>>7>>>$7>:7>7*>*7>>>,7:>*>7::::7*:$@$7,:@o+++@+@@@+@@@+++@$79,9119997>>:>>7>>$7>,,>,>#t09999,@w99:#<p7:>:::>>99,99",
"919,989-$@*7*>,>:>,>>>:7*,:7$,>>>,r2+:1<*>:>:::>$,8@>7>@++@@+++++++++@$,7::7999999,9:>>,:>#2r997>>#<097,977@w99:,$9:>>>>>>*9929,",
"87>,$XXX++$>>>:>>>:>>>:$>*,r$*7:799>70rq+7>>>>7,9t<@::>>-$$#&@$&#$$*,7:7:7>>,20202922:*>>@wr7:>:>7@wr7:997,$-0:>>7>>>:>>$:779999",
",$,7@@*:>7>;>>::>>>,97$,>:10w+7-991,99r$*:7>99990,$:7>7>>7>77:7>,77:77,,89,,,,92222w6,*>>@<$:>>::>$99+9r7:7:*7>>77:,>>>>7:>>:9,9",
"999,2,7:>>:7:>>>>>::rt7#:,29w@:99,997rw@:>>*,77,:::>>>::>>>:7>>:,899$,99,999997>78=@-,:>>>*#>:$:>:7>>7*$:>>>>:>>*@@@@&@++>,>:$98",
"989970w>>>>>,>>:>>>79,y=@9999$,9899,09@>>9997-,;#7>>>::,9997>>>>,929,,199999299,#,9$@+:>>;09997999997::>*7>>>:>7@++++@@+@:>77,77",
"700790y-:7>>>>>:>>*79,8r@799,791<897$#>7>:7792w,*>>>>:;999929:>:9,999$>0,99,9229,+$97>::#$88,929992,,799,:>>>::>>@+++@@@::::7997",
",70rr0r7$>>>:7>>>>>>*:997:9897,71999rw&>>>>:>**:7>>*>>999909997>79999-+,09997,e29,@@$7:>7;;-99><99$99970,:>>>:>>7:>*$*>:7>>>7999",
"78%@8ta8$7>>>>>:>>>>7>79,77997:>:><02<#:>>7>7:>>7:>7>:99992,987*91899,&+<r9,9$7552:,@*7:;$0r17@w9$-r@7977>>>>>>::>7>,,>7>>>:9999",
"907##+-$>>>:>>>>7>>>>>,,9>$77>7>7:7>*>:>>>>:*:>>>>7>:2999222999#299907>>+,r02@+@03*>7:>>>:>*>#2w7$07@w7:,77>7,7:>>>9-$7:$>>7$ww,",
"7r77>:@#77:,>:7:$,7>>77977>::>:>:>:*:,>>>7::,:>,>>:>*,0,2290997@9219w,*::+@9r9@+o@87*:>>::>:*$r>#*7$=9:,$@@$:*$;:790$@7>:>7>7#wr",
"tu$-7>>$$#@@@@@@+@#,:7*,7:>77>::>>>>>:>7::>>>>>>>7:7>-4139,292-#92<9w,*,,>$@$,r0,#ry9$>7>,w,**>>7>>>77>$<3@$,8w@>998@w9#7>>>*,$<",
"-w*>:$@@+@++++@+++@:*:>:>>>:>>:777>>77998,>:>>>>>>>>7#20w$,2,0@$,0993@$7:>>:@+wtr099rw>>*0yw*>:>:>>$:;#0r0@,990$9977<y-#7>>*777$",
"*+>>:@@@+@+@+@++@+#7:>>7>:,:799999*>99999879>:>7>>;>7#*58@252@#9$8r5$+>>>7>:7>7e,999709>7e,r9:::e9>>>*>9:9,99,7,9,,99w@7,>>:>>>:",
":,:>>*+%@@@@@@@@X$*7:,>>>7&9w8999,,79999,199r::>:::*>>@<$&0<@@:>7-3@+>>>>>>>>>:7w999997*:9709>7ya0>>>>19:190,:797,799,000w77>:>7",
":>:>>>>&&++@++#=>7,>7:7:>@<079,9,,9,9999900wyw$7>>>,97$+@*+o$7*>,$o@>7>:>:>>>>>:7w999997>99,7>r090*>>:97>99:>:77:9999909,-$$7>>>",
"7>:::::7>>**$7*$&$@@@@$$&w099097999771,89ww;ri7:>>779,7*::>>7*>:>$*,>>>:>7:>>::>7<990199,999;917>97>>>1917>:>>>>:99999,$$*7:>>>>",
"7::>:>>7>>>77>++++@@++++7w0rw0779,17$99999ywo;9$>>:799>,9877,00997*>>>>7::>>>*:7i01977,:,999>799;>::>>:77>>>>$7>07#7:$$77>>>:7>>",
":>7>>>::>::>>:::$*@@@@@&**>>7+8r9199:79$79,yr#:*>7:997>999>>,7799tw:::7>>77:777:,999997>,997:99:>:>>>:>:$>>,>>>8e*+7>7>>:>>:>>:7",
">:,>>:>>>79,*>>::7:>>>>7>:>>-@y099977:99+799y7>>7:,99,:1,,>999,29r07:>#$$@@$@#$,>>,,>:>>,,>>>89>>>7>>>>>:>$*7>7w9$+:>:>:>>>:>>$7",
"7>:>>7:>:>,09>:**7:>7:>>>>>7+qr7999$#,92*o79w8>>,9>92>799779,9999>*>7-@O+++++++@$,7*7>>*$7$&777>7>::>>,:>9,X*:907;+7>>7,979@*>>>",
">>>,999,,,>>0r0r7$:,>>>>>:,#@t9991>$@:,99@X,09>>90,r9>791>:199990w7:>>:#@&@@@@+.+>>:>*+X@$++,::>:>:>7>>>:997++9097@#7,99,r;@7>>>",
":>>79899899970ii-#,:>>7:>7>X-299:>7:@#89w7@o>7>>:yir>>0797:>99,9,r0>>777>7>>:: <8#,>*o@28o7$#,>*>>>>:>:>:7w99@@8,7$$9,99rw+,7:7:",
">>>99,999980ww8$*7:>>>>$$>>>>>>>>>:7@;992>7#*>>>>tr$>>r99e>>99999,00*:>>7:>7>X<55#>7+-55;&52&,>77:7:7*>>7$tr99$$97>>9999y@$>>*:>",
">7,:999998887$#*>>7$@++X++>>:::>>>:7#@907:7:>>>>>>:7>>00r9>:0r9,1r9t$*7>>>>7@$5959>*@090#955$$7>>>>>:>>,7$@yr797,9>>999e9@99877:",
":999,2999799wttr$@#XX+XXXo#>>>>>>,:7&@r8>>>>:*>7:>>>>>:ty:>>*0t099wp8o@7>>>7#22722:@<,02$2908$7>>::>>>>>>t8;ww98929,991>70200r<#",
"7999r,999989,9st@-@@Xo oXo+:>>>,7$,7:;0*:>>>7>:,7>:7>>:7>>>>>>9i-+:993#X:77>$20990>@2990>2992#>7>>>>,>>>>9se8099999,99>719700;#7",
"7991wr>99190rywX*>7,$#&+@+@>7>>*$,9999,>>>>>77797:7>>>>>>:>>>:>7=@o+$0r,+#:>$29820:#991292890$::>>>7>:7:>>00897899977:799700*$77",
"99997tr*@79w0$+,7>>>77:7>>>>:@@;029989,>9>7:79779,>:*>>>>>>>>>7:,57@o79w2@*7=29910;:9194229997:>7:>:>>>>:>>>8999919*>19997$*7:7:",
"999<79ty8@$*#*:7>:>>:>>>:77$@0www1999,:97:>7,8:997>7>>>>>>>>7@=7,359$,9,wr@$$8899,,79992w1989>>>7:>:>>>7>>>$::7,,7*:7>7:>::,>>7:",
"8999&790tr-*77>>>>>>7>>>:,$@@$;9-,097,799$7999,99>>>>:>:>>:>>$@#,0239:99122+$99199,$999<0999,>>>*>>7>>>>>>7:>7$+Xoo+$>:>>>::>>>:",
"999wX#77,0w8@$>>:>,>>>>>>;+@@++o w997,97,799,8709@>>>::7>>:77,9+@7895,79990,@79,99:7:99,8999,*>:>:>>:7>>7>7:77@XXX+XX$,>:>>>>>>:",
"9:y8o$7::-$$@$:777>>7>7$:$O@++@+@y<7799@9007.80w#77$:7>>*7>7$$98@+7993,91979*99999,>>799999,7>>:>7>:>>>>:>:>>>,#Xo++$>>>:7>:7>7:",
"0ri@X$>>>:7:,:*$*$$*$*,77$@+@@%o=r@8997Xww=+or8&77>>>>>>7>:>#X+,0:@8999979997:99,9:::7,,999>>>>7:>7::>>>>>>>>>>:#$>>7>7:::>>>:>7",
"9d0.+,>>>:#@@+@++++++++$:$++@++@&oo29,@X++++ +o>>:>>:>>,*>:7$,@@:97,9899,7999:,,997>>>>:>:>:,:>>>>>::::>7>7:>:>>,::::$#:7>:>>>:>",
">e@X#,77,$++++%@@@@@+@++#7*X@@+@@.+0,@+%@+@@@+,,7,7>>7>>>>>>>0522091>77992,7,7:7,,:7>>>:*>>>::>>7>>:7>,:;$$*$,::>:@oX+oX+*>>>>>7",
">>$@>7:>:>-@#+@@+++++@+@@7>@o+++@@@@++@++@+o@7-$&#*>:>:7>77:>2w9023w27>>779>>>7$>::>::*77:>$:77:>$>7;#+@@@+@+@7>:7+oXoXX@>>>>>>>",
">>>>7>:>>>>>>>*&$$$&*$$$7:>>&+++@@@+@+@@++@$>>&+++#7>>,>>>27:>29999992,:>::>:>:>:>:>:>:>7,90o7>:>>>7*+@@+++++-7>>77=##$-7:>,0:$>",
"7>>::>>>,>>>>7>7>:,>:>,77>>>>>#@@+++++@+@*>>>77:***>>>>>7$90>::99991991,>>>>>7>>>>7>>:,,@$ra@#,;#,7*,&@@%+@$>7>:>>$$77>>>>9trX*>",
">>>>>7:>>>>>7>>>:>>>>#@@#$::>>,>*$#*-#*7777>>>>:7>>7>7:>:,90>:>,78,999997:$>:>>,7>$::$79o-re8X,,@:>>:77>:>>7:7>>*7,X**97+90r,X,7",
"$77>>>>:::>>*>>>7::::$@+@#77>>>>>>7>777>>>*>>>>7>>:>>:*77790$>>:7,9,29,997>77>>>>>:>9,+r@8w,9#90@7:>>>>>7>::7*:$0y<+9ri-@e7e-<t@",
">>>>:>>;:>>>>>>>>>>:>::>:>7$,>:>>>:>r9$7>>>::::>>>:>>>>,>,08*>>>>>7>:,,,,:>>>>>>>>:>ti&r8<09:79e@*7>>>>>:,,>>:*9w9&<y9r-799,9r2X",
">*>::7>:>>>>>>>>7trr0>:7>>,9>,i9>*>ri>:*>>>>*7>>7>7>>>>$980$#>>>$>*7>7>:>>>7>:7:>>:9wwt9q20,*970;#7>>::#-#$>$>9r97qw970899>990&+",
"0t0-$:>>,>>>>>7>>0t9ir*7>,p99y0,>>ww<:9r9::>>7>>>>>>>>77997#>791,*>>>:>:>$:>7::>>>:009rt0w09>99w<+7>70tip+#,>:e277287>,99,98902w",
"0r;*>>7et>7>>rytt9097t7>>wt9t077>0r9790r7>>>:>>:>:>>7:,9,779900rrw>>,:>>>7:>>>>>>>>0070r02997990<@>>ryttt%7>:77977997>>9,:998909"
};
